<mxfile host="app.diagrams.net" agent="Mozilla/5.0 (Windows NT 10.0; Win64; x64) AppleWebKit/537.36 (KHTML, like Gecko) Chrome/134.0.0.0 Safari/537.36" version="26.1.3">
  <diagram id="C5RBs43oDa-KdzZeNtuy" name="Page-1">
    <mxGraphModel dx="1397" dy="714" grid="1" gridSize="10" guides="1" tooltips="1" connect="1" arrows="1" fold="1" page="1" pageScale="1" pageWidth="827" pageHeight="1169" math="0" shadow="0">
      <root>
        <mxCell id="WIyWlLk6GJQsqaUBKTNV-0" />
        <mxCell id="WIyWlLk6GJQsqaUBKTNV-1" parent="WIyWlLk6GJQsqaUBKTNV-0" />
        <mxCell id="zkfFHV4jXpPFQw0GAbJ--0" value="Member" style="swimlane;fontStyle=2;align=center;verticalAlign=top;childLayout=stackLayout;horizontal=1;startSize=26;horizontalStack=0;resizeParent=1;resizeLast=0;collapsible=1;marginBottom=0;rounded=0;shadow=0;strokeWidth=1;" parent="WIyWlLk6GJQsqaUBKTNV-1" vertex="1">
          <mxGeometry x="220" y="28" width="170" height="160" as="geometry">
            <mxRectangle x="230" y="140" width="160" height="26" as="alternateBounds" />
          </mxGeometry>
        </mxCell>
        <mxCell id="pFoNiBgnL3OstCLFfi3r-1" value="-user id:int" style="text;align=left;verticalAlign=top;spacingLeft=4;spacingRight=4;overflow=hidden;rotatable=0;points=[[0,0.5],[1,0.5]];portConstraint=eastwest;rounded=0;shadow=0;html=0;" vertex="1" parent="zkfFHV4jXpPFQw0GAbJ--0">
          <mxGeometry y="26" width="170" height="26" as="geometry" />
        </mxCell>
        <mxCell id="zkfFHV4jXpPFQw0GAbJ--1" value="-Name:String" style="text;align=left;verticalAlign=top;spacingLeft=4;spacingRight=4;overflow=hidden;rotatable=0;points=[[0,0.5],[1,0.5]];portConstraint=eastwest;" parent="zkfFHV4jXpPFQw0GAbJ--0" vertex="1">
          <mxGeometry y="52" width="170" height="26" as="geometry" />
        </mxCell>
        <mxCell id="zkfFHV4jXpPFQw0GAbJ--2" value="-Phone Number:Int" style="text;align=left;verticalAlign=top;spacingLeft=4;spacingRight=4;overflow=hidden;rotatable=0;points=[[0,0.5],[1,0.5]];portConstraint=eastwest;rounded=0;shadow=0;html=0;" parent="zkfFHV4jXpPFQw0GAbJ--0" vertex="1">
          <mxGeometry y="78" width="170" height="26" as="geometry" />
        </mxCell>
        <mxCell id="zkfFHV4jXpPFQw0GAbJ--3" value="-Email Address:string" style="text;align=left;verticalAlign=top;spacingLeft=4;spacingRight=4;overflow=hidden;rotatable=0;points=[[0,0.5],[1,0.5]];portConstraint=eastwest;rounded=0;shadow=0;html=0;" parent="zkfFHV4jXpPFQw0GAbJ--0" vertex="1">
          <mxGeometry y="104" width="170" height="26" as="geometry" />
        </mxCell>
        <mxCell id="pFoNiBgnL3OstCLFfi3r-2" value="" style="line;html=1;strokeWidth=1;align=left;verticalAlign=middle;spacingTop=-1;spacingLeft=3;spacingRight=3;rotatable=0;labelPosition=right;points=[];portConstraint=eastwest;" vertex="1" parent="zkfFHV4jXpPFQw0GAbJ--0">
          <mxGeometry y="130" width="170" height="8" as="geometry" />
        </mxCell>
        <mxCell id="pFoNiBgnL3OstCLFfi3r-17" style="edgeStyle=orthogonalEdgeStyle;rounded=0;orthogonalLoop=1;jettySize=auto;html=1;entryX=0.5;entryY=1;entryDx=0;entryDy=0;" edge="1" parent="WIyWlLk6GJQsqaUBKTNV-1" target="zkfFHV4jXpPFQw0GAbJ--0">
          <mxGeometry relative="1" as="geometry">
            <mxPoint x="175" y="228" as="sourcePoint" />
          </mxGeometry>
        </mxCell>
        <mxCell id="pFoNiBgnL3OstCLFfi3r-7" value="User" style="swimlane;fontStyle=2;align=center;verticalAlign=top;childLayout=stackLayout;horizontal=1;startSize=26;horizontalStack=0;resizeParent=1;resizeLast=0;collapsible=1;marginBottom=0;rounded=0;shadow=0;strokeWidth=1;" vertex="1" parent="WIyWlLk6GJQsqaUBKTNV-1">
          <mxGeometry x="90" y="234" width="170" height="200" as="geometry">
            <mxRectangle x="230" y="140" width="160" height="26" as="alternateBounds" />
          </mxGeometry>
        </mxCell>
        <mxCell id="pFoNiBgnL3OstCLFfi3r-8" value="-user id:int" style="text;align=left;verticalAlign=top;spacingLeft=4;spacingRight=4;overflow=hidden;rotatable=0;points=[[0,0.5],[1,0.5]];portConstraint=eastwest;rounded=0;shadow=0;html=0;" vertex="1" parent="pFoNiBgnL3OstCLFfi3r-7">
          <mxGeometry y="26" width="170" height="26" as="geometry" />
        </mxCell>
        <mxCell id="pFoNiBgnL3OstCLFfi3r-12" value="" style="line;html=1;strokeWidth=1;align=left;verticalAlign=middle;spacingTop=-1;spacingLeft=3;spacingRight=3;rotatable=0;labelPosition=right;points=[];portConstraint=eastwest;" vertex="1" parent="pFoNiBgnL3OstCLFfi3r-7">
          <mxGeometry y="52" width="170" height="8" as="geometry" />
        </mxCell>
        <mxCell id="pFoNiBgnL3OstCLFfi3r-13" value="+Showpackage():void" style="text;align=left;verticalAlign=top;spacingLeft=4;spacingRight=4;overflow=hidden;rotatable=0;points=[[0,0.5],[1,0.5]];portConstraint=eastwest;rounded=0;shadow=0;html=0;" vertex="1" parent="pFoNiBgnL3OstCLFfi3r-7">
          <mxGeometry y="60" width="170" height="26" as="geometry" />
        </mxCell>
        <mxCell id="pFoNiBgnL3OstCLFfi3r-14" value="+Showavailabledate():void" style="text;align=left;verticalAlign=top;spacingLeft=4;spacingRight=4;overflow=hidden;rotatable=0;points=[[0,0.5],[1,0.5]];portConstraint=eastwest;rounded=0;shadow=0;html=0;" vertex="1" parent="pFoNiBgnL3OstCLFfi3r-7">
          <mxGeometry y="86" width="170" height="26" as="geometry" />
        </mxCell>
        <mxCell id="pFoNiBgnL3OstCLFfi3r-15" value="+Viewgalleryphoto():void" style="text;align=left;verticalAlign=top;spacingLeft=4;spacingRight=4;overflow=hidden;rotatable=0;points=[[0,0.5],[1,0.5]];portConstraint=eastwest;rounded=0;shadow=0;html=0;" vertex="1" parent="pFoNiBgnL3OstCLFfi3r-7">
          <mxGeometry y="112" width="170" height="26" as="geometry" />
        </mxCell>
        <mxCell id="pFoNiBgnL3OstCLFfi3r-29" value="+Enquiry():void" style="text;align=left;verticalAlign=top;spacingLeft=4;spacingRight=4;overflow=hidden;rotatable=0;points=[[0,0.5],[1,0.5]];portConstraint=eastwest;rounded=0;shadow=0;html=0;" vertex="1" parent="pFoNiBgnL3OstCLFfi3r-7">
          <mxGeometry y="138" width="170" height="26" as="geometry" />
        </mxCell>
        <mxCell id="pFoNiBgnL3OstCLFfi3r-18" value="Admin" style="swimlane;fontStyle=2;align=center;verticalAlign=top;childLayout=stackLayout;horizontal=1;startSize=26;horizontalStack=0;resizeParent=1;resizeLast=0;collapsible=1;marginBottom=0;rounded=0;shadow=0;strokeWidth=1;" vertex="1" parent="WIyWlLk6GJQsqaUBKTNV-1">
          <mxGeometry x="360" y="231" width="170" height="240" as="geometry">
            <mxRectangle x="230" y="140" width="160" height="26" as="alternateBounds" />
          </mxGeometry>
        </mxCell>
        <mxCell id="pFoNiBgnL3OstCLFfi3r-19" value="-user id:int" style="text;align=left;verticalAlign=top;spacingLeft=4;spacingRight=4;overflow=hidden;rotatable=0;points=[[0,0.5],[1,0.5]];portConstraint=eastwest;rounded=0;shadow=0;html=0;" vertex="1" parent="pFoNiBgnL3OstCLFfi3r-18">
          <mxGeometry y="26" width="170" height="26" as="geometry" />
        </mxCell>
        <mxCell id="pFoNiBgnL3OstCLFfi3r-20" value="" style="line;html=1;strokeWidth=1;align=left;verticalAlign=middle;spacingTop=-1;spacingLeft=3;spacingRight=3;rotatable=0;labelPosition=right;points=[];portConstraint=eastwest;" vertex="1" parent="pFoNiBgnL3OstCLFfi3r-18">
          <mxGeometry y="52" width="170" height="8" as="geometry" />
        </mxCell>
        <mxCell id="pFoNiBgnL3OstCLFfi3r-21" value="+Createpackage():void" style="text;align=left;verticalAlign=top;spacingLeft=4;spacingRight=4;overflow=hidden;rotatable=0;points=[[0,0.5],[1,0.5]];portConstraint=eastwest;rounded=0;shadow=0;html=0;" vertex="1" parent="pFoNiBgnL3OstCLFfi3r-18">
          <mxGeometry y="60" width="170" height="26" as="geometry" />
        </mxCell>
        <mxCell id="pFoNiBgnL3OstCLFfi3r-22" value="+Handledate():void" style="text;align=left;verticalAlign=top;spacingLeft=4;spacingRight=4;overflow=hidden;rotatable=0;points=[[0,0.5],[1,0.5]];portConstraint=eastwest;rounded=0;shadow=0;html=0;" vertex="1" parent="pFoNiBgnL3OstCLFfi3r-18">
          <mxGeometry y="86" width="170" height="26" as="geometry" />
        </mxCell>
        <mxCell id="pFoNiBgnL3OstCLFfi3r-23" value="+handleGallery():void" style="text;align=left;verticalAlign=top;spacingLeft=4;spacingRight=4;overflow=hidden;rotatable=0;points=[[0,0.5],[1,0.5]];portConstraint=eastwest;rounded=0;shadow=0;html=0;" vertex="1" parent="pFoNiBgnL3OstCLFfi3r-18">
          <mxGeometry y="112" width="170" height="26" as="geometry" />
        </mxCell>
        <mxCell id="pFoNiBgnL3OstCLFfi3r-27" value="+Viewfeedback():void" style="text;align=left;verticalAlign=top;spacingLeft=4;spacingRight=4;overflow=hidden;rotatable=0;points=[[0,0.5],[1,0.5]];portConstraint=eastwest;rounded=0;shadow=0;html=0;" vertex="1" parent="pFoNiBgnL3OstCLFfi3r-18">
          <mxGeometry y="138" width="170" height="26" as="geometry" />
        </mxCell>
        <mxCell id="pFoNiBgnL3OstCLFfi3r-28" value="+Showenquiry():void" style="text;align=left;verticalAlign=top;spacingLeft=4;spacingRight=4;overflow=hidden;rotatable=0;points=[[0,0.5],[1,0.5]];portConstraint=eastwest;rounded=0;shadow=0;html=0;" vertex="1" parent="pFoNiBgnL3OstCLFfi3r-18">
          <mxGeometry y="164" width="170" height="26" as="geometry" />
        </mxCell>
        <mxCell id="pFoNiBgnL3OstCLFfi3r-25" value="" style="endArrow=none;html=1;rounded=0;" edge="1" parent="WIyWlLk6GJQsqaUBKTNV-1">
          <mxGeometry width="50" height="50" relative="1" as="geometry">
            <mxPoint x="300" y="208" as="sourcePoint" />
            <mxPoint x="450" y="208" as="targetPoint" />
          </mxGeometry>
        </mxCell>
        <mxCell id="pFoNiBgnL3OstCLFfi3r-26" value="" style="endArrow=none;html=1;rounded=0;exitX=0.5;exitY=0;exitDx=0;exitDy=0;" edge="1" parent="WIyWlLk6GJQsqaUBKTNV-1">
          <mxGeometry width="50" height="50" relative="1" as="geometry">
            <mxPoint x="450" y="228" as="sourcePoint" />
            <mxPoint x="450" y="208" as="targetPoint" />
          </mxGeometry>
        </mxCell>
        <mxCell id="pFoNiBgnL3OstCLFfi3r-42" value="" style="swimlane;startSize=0;" vertex="1" parent="WIyWlLk6GJQsqaUBKTNV-1">
          <mxGeometry x="310" y="599" width="950" height="551" as="geometry" />
        </mxCell>
        <mxCell id="pFoNiBgnL3OstCLFfi3r-35" value="Order" style="text;align=left;verticalAlign=top;spacingLeft=4;spacingRight=4;overflow=hidden;rotatable=0;points=[[0,0.5],[1,0.5]];portConstraint=eastwest;rounded=0;shadow=0;html=0;fontSize=50;" vertex="1" parent="pFoNiBgnL3OstCLFfi3r-42">
          <mxGeometry x="50" y="20" width="170" height="89" as="geometry" />
        </mxCell>
        <mxCell id="pFoNiBgnL3OstCLFfi3r-34" value="" style="line;strokeWidth=2;html=1;rotation=-90;" vertex="1" parent="pFoNiBgnL3OstCLFfi3r-42">
          <mxGeometry x="182.5" y="27.5" width="93.5" height="40" as="geometry" />
        </mxCell>
        <mxCell id="pFoNiBgnL3OstCLFfi3r-32" value="" style="line;strokeWidth=2;html=1;" vertex="1" parent="pFoNiBgnL3OstCLFfi3r-42">
          <mxGeometry x="2" y="126" width="160" height="10" as="geometry" />
        </mxCell>
        <mxCell id="pFoNiBgnL3OstCLFfi3r-33" value="" style="line;strokeWidth=2;html=1;rotation=-30;" vertex="1" parent="pFoNiBgnL3OstCLFfi3r-42">
          <mxGeometry x="156" y="12" width="78" height="201" as="geometry" />
        </mxCell>
        <mxCell id="pFoNiBgnL3OstCLFfi3r-37" value="" style="ellipse;whiteSpace=wrap;html=1;" vertex="1" parent="pFoNiBgnL3OstCLFfi3r-42">
          <mxGeometry x="444" y="164" width="130" height="90" as="geometry" />
        </mxCell>
        <mxCell id="pFoNiBgnL3OstCLFfi3r-43" value="Order&#xa;place" style="text;align=left;verticalAlign=top;spacingLeft=4;spacingRight=4;overflow=hidden;rotatable=0;points=[[0,0.5],[1,0.5]];portConstraint=eastwest;rounded=0;shadow=0;html=0;fontSize=25;" vertex="1" parent="pFoNiBgnL3OstCLFfi3r-42">
          <mxGeometry x="470" y="170" width="150" height="60" as="geometry" />
        </mxCell>
        <mxCell id="pFoNiBgnL3OstCLFfi3r-40" value="" style="endArrow=none;html=1;rounded=0;exitX=0.48;exitY=-0.016;exitDx=0;exitDy=0;exitPerimeter=0;" edge="1" parent="pFoNiBgnL3OstCLFfi3r-42" source="pFoNiBgnL3OstCLFfi3r-37">
          <mxGeometry width="50" height="50" relative="1" as="geometry">
            <mxPoint x="503" y="169" as="sourcePoint" />
            <mxPoint x="510" y="81" as="targetPoint" />
          </mxGeometry>
        </mxCell>
        <mxCell id="pFoNiBgnL3OstCLFfi3r-46" value="" style="ellipse;whiteSpace=wrap;html=1;" vertex="1" parent="pFoNiBgnL3OstCLFfi3r-42">
          <mxGeometry x="289" y="325" width="130" height="90" as="geometry" />
        </mxCell>
        <mxCell id="pFoNiBgnL3OstCLFfi3r-47" value="Accecpt" style="text;align=left;verticalAlign=top;spacingLeft=4;spacingRight=4;overflow=hidden;rotatable=0;points=[[0,0.5],[1,0.5]];portConstraint=eastwest;rounded=0;shadow=0;html=0;fontSize=25;" vertex="1" parent="pFoNiBgnL3OstCLFfi3r-42">
          <mxGeometry x="306" y="347" width="150" height="60" as="geometry" />
        </mxCell>
        <mxCell id="pFoNiBgnL3OstCLFfi3r-49" value="" style="ellipse;whiteSpace=wrap;html=1;" vertex="1" parent="pFoNiBgnL3OstCLFfi3r-42">
          <mxGeometry x="630" y="325" width="130" height="90" as="geometry" />
        </mxCell>
        <mxCell id="pFoNiBgnL3OstCLFfi3r-50" value="Reject" style="text;align=left;verticalAlign=top;spacingLeft=4;spacingRight=4;overflow=hidden;rotatable=0;points=[[0,0.5],[1,0.5]];portConstraint=eastwest;rounded=0;shadow=0;html=0;fontSize=25;" vertex="1" parent="pFoNiBgnL3OstCLFfi3r-42">
          <mxGeometry x="660" y="347" width="150" height="60" as="geometry" />
        </mxCell>
        <mxCell id="pFoNiBgnL3OstCLFfi3r-52" value="" style="endArrow=none;html=1;rounded=0;exitX=0;exitY=0;exitDx=0;exitDy=0;entryX=1;entryY=1;entryDx=0;entryDy=0;" edge="1" parent="pFoNiBgnL3OstCLFfi3r-42" target="pFoNiBgnL3OstCLFfi3r-37">
          <mxGeometry width="50" height="50" relative="1" as="geometry">
            <mxPoint x="648.0380592228748" y="338.1801948466052" as="sourcePoint" />
            <mxPoint x="599.77" y="257" as="targetPoint" />
          </mxGeometry>
        </mxCell>
        <mxCell id="pFoNiBgnL3OstCLFfi3r-53" value="" style="endArrow=none;html=1;rounded=0;entryX=0;entryY=1;entryDx=0;entryDy=0;" edge="1" parent="pFoNiBgnL3OstCLFfi3r-42" source="pFoNiBgnL3OstCLFfi3r-46" target="pFoNiBgnL3OstCLFfi3r-37">
          <mxGeometry width="50" height="50" relative="1" as="geometry">
            <mxPoint x="523" y="189" as="sourcePoint" />
            <mxPoint x="523.77" y="99" as="targetPoint" />
            <Array as="points" />
          </mxGeometry>
        </mxCell>
        <mxCell id="pFoNiBgnL3OstCLFfi3r-68" value="if date is not&#xa; available" style="text;align=left;verticalAlign=top;spacingLeft=4;spacingRight=4;overflow=hidden;rotatable=0;points=[[0,0.5],[1,0.5]];portConstraint=eastwest;rounded=0;shadow=0;html=0;fontSize=25;" vertex="1" parent="pFoNiBgnL3OstCLFfi3r-42">
          <mxGeometry x="610" y="230" width="160" height="70" as="geometry" />
        </mxCell>
        <mxCell id="pFoNiBgnL3OstCLFfi3r-84" value="if date is&#xa; available" style="text;align=left;verticalAlign=top;spacingLeft=4;spacingRight=4;overflow=hidden;rotatable=0;points=[[0,0.5],[1,0.5]];portConstraint=eastwest;rounded=0;shadow=0;html=0;fontSize=25;" vertex="1" parent="pFoNiBgnL3OstCLFfi3r-42">
          <mxGeometry x="289" y="221" width="160" height="70" as="geometry" />
        </mxCell>
        <mxCell id="pFoNiBgnL3OstCLFfi3r-85" value="" style="verticalLabelPosition=bottom;verticalAlign=top;html=1;shape=mxgraph.flowchart.on-page_reference;labelBackgroundColor=#000033;" vertex="1" parent="pFoNiBgnL3OstCLFfi3r-42">
          <mxGeometry x="479" y="20" width="60" height="60" as="geometry" />
        </mxCell>
      </root>
    </mxGraphModel>
  </diagram>
</mxfile>
